<?xml version="1.0" standalone="no"?>
<!DOCTYPE svg PUBLIC "-//W3C//DTD SVG 20010904//EN"
 "http://www.w3.org/TR/2001/REC-SVG-20010904/DTD/svg10.dtd">
<svg version="1.0" xmlns="http://www.w3.org/2000/svg"
 width="256.000000pt" height="256.000000pt" viewBox="0 0 256.000000 256.000000"
 preserveAspectRatio="xMidYMid meet">
<metadata>
Created by potrace 1.13, written by Peter Selinger 2001-2015
</metadata>
<g transform="translate(0.000000,256.000000) scale(0.100000,-0.100000)"
fill="#000000" stroke="none">
<path d="M1165 2488 c-152 -10 -219 -22 -325 -59 -159 -55 -383 -202 -474
-311 -20 -24 -54 -64 -75 -91 -68 -81 -145 -230 -191 -367 -128 -385 -46 -827
212 -1147 49 -61 159 -161 216 -196 53 -33 92 -46 92 -32 0 10 -36 80 -44 86
-17 13 -1 197 21 232 18 29 26 201 12 242 -10 26 -7 37 15 79 25 47 26 56 27
220 1 94 4 196 8 226 6 49 8 52 15 28 10 -33 7 -33 86 -8 34 11 64 20 66 20 2
0 4 -27 4 -61 0 -66 17 -149 31 -149 5 0 11 12 15 28 11 52 39 110 48 104 31
-19 57 -9 93 35 21 24 53 62 71 83 32 38 41 60 22 60 -5 0 -10 9 -10 20 0 20
4 30 29 78 9 18 9 27 0 38 -13 16 -34 12 -92 -17 -52 -26 -68 -23 -34 6 33 29
30 67 -3 58 -35 -9 -22 20 35 80 44 45 51 57 35 57 -11 0 -20 5 -20 11 0 7 -8
18 -17 25 -17 13 -17 14 4 20 12 3 30 18 39 32 16 24 16 26 -7 43 -13 10 -19
19 -14 19 6 0 21 10 35 21 l25 21 -21 17 c-11 9 -24 31 -27 49 -6 27 -2 36 23
59 22 19 30 35 30 59 0 23 6 37 21 44 12 7 18 18 15 26 -3 8 5 21 19 30 21 14
30 14 54 4 38 -15 84 -84 78 -116 -2 -13 2 -29 10 -36 8 -6 12 -17 9 -25 -3
-8 -1 -22 6 -32 8 -13 8 -30 1 -59 -11 -41 -11 -42 23 -54 35 -12 42 -22 24
-33 -5 -3 -1 -20 10 -40 11 -19 16 -35 12 -35 -4 0 -15 -7 -25 -14 -18 -14
-18 -15 0 -42 14 -22 15 -28 4 -32 -10 -3 -8 -9 9 -22 21 -16 22 -18 7 -41 -9
-13 -17 -28 -19 -34 -2 -5 -13 -9 -25 -7 -28 3 -63 -14 -63 -31 0 -7 12 -23
25 -36 26 -24 32 -46 15 -56 -14 -8 -13 -42 1 -47 17 -6 2 -42 -30 -75 -15
-15 -34 -44 -41 -63 -27 -71 -50 -78 -81 -25 -12 19 -27 35 -35 35 -8 0 -25
-18 -39 -40 -46 -72 -25 -176 44 -224 98 -68 208 -59 278 22 23 26 33 32 33
20 0 -20 28 -14 47 11 10 13 12 7 13 -36 0 -36 4 -53 13 -53 7 0 18 -9 25 -20
7 -11 23 -20 37 -20 14 0 25 -4 25 -10 0 -5 9 -10 20 -10 15 0 19 -6 16 -22
-3 -19 52 -144 95 -218 9 -16 65 -132 79 -165 27 -66 50 -153 55 -215 1 -19 6
-42 9 -51 4 -8 3 -26 -2 -40 -11 -31 -4 -59 14 -59 45 0 221 123 294 206 73
83 86 100 116 144 126 183 204 441 204 671 0 81 -19 231 -39 309 -103 408
-425 741 -835 866 -65 19 -246 44 -311 42 -27 0 -104 -5 -170 -10z"/>
</g>
</svg>
